<svg xmlns="http://www.w3.org/2000/svg" width="78" height="87" viewBox="0 0 78 87">
    <g fill="none" fill-rule="evenodd">
        <path fill="#D75E72" d="M74.995 46.5c4.5-4.5-1.5-9-1.5-9 4.5-4.5 0-9 0-9 3.75-3.75 0-9 0-9a13.62 13.62 0 0 0 4.5-10.5c0-4.5-1.5-9-7.498-9-5.999 0-7.498 6-7.498 6C57 6 55.5 12 55.5 12c-5.999-4.5-8.998 3-8.998 3-5.999-4.5-10.497 1.5-10.497 1.5 0-4.5-7.498-4.5-8.998-3 0-4.5-3-10.5-11.997-10.5C6.013 3 1.514 9 1.514 13.5a5.511 5.511 0 0 0 1.5 4.5l1.5 1.5s-3 4.5 0 7.5c0 0-4.5 3 0 7.5 0 0-6.748 3.75-1.5 9a13.142 13.142 0 0 0-3 9c0 2.406.976 5.772 6 7.012V60c0 3 1.499 6 1.499 9 0 4.5 0 9 3 9 2.998 0 2.998-4.5 2.998-9 0-3-1.5-6-1.5-9v-.092A10.18 10.18 0 0 0 21.01 49.5a6.5 6.5 0 0 0-2.999-6c3-1.5 2.13-9-1.5-9 0 0 3.75-3.75 0-7.5v-1.5c2.413.934 5.087.934 7.499 0A9.07 9.07 0 0 0 36.006 27c5.998 6 11.997 0 11.997 0 7.498 0 7.498-3 7.498-3 2.999 1.5 4.498 0 5.998-1.5-1.5 3 1.5 6 1.5 6-5.249 5.25 0 9 0 9-4.5 4.5 1.5 9 1.5 9a6.5 6.5 0 0 0-3 6 5.095 5.095 0 0 0 1.44 2.94 6.734 6.734 0 0 0-4.44-1.44 6.567 6.567 0 0 0-4.498 1.5C51 51 48.003 51 43.504 51c-3 0-10.498 1.5-10.498 9v18a10.63 10.63 0 0 0 3 7.5c2.1 2 5.398 2 7.498 0a10.63 10.63 0 0 0 2.999-7.5v-7.5c4.499 0 5.998-1.5 5.998-1.5C57.75 74.25 63 69 63 69c7.498 0 7.498-4.5 7.498-4.5 7.498 0 4.498-9 4.498-9 5.25-5.25 0-9 0-9z"/>
        <g fill="#802D40">
            <path d="M46.08 69.983a8.786 8.786 0 0 1-6.568-2.51 8.532 8.532 0 0 1-2.545-6.476c0-.827.68-1.497 1.52-1.497.838 0 1.518.67 1.518 1.497a5.57 5.57 0 0 0 1.654 4.36 5.738 5.738 0 0 0 4.42 1.63c.84 0 1.52.67 1.52 1.498 0 .827-.68 1.498-1.52 1.498zM15.705 25.057c-.163 0-.325-.026-.48-.077-.21-.07-5.173-1.735-6.953-5.244a1.488 1.488 0 0 1 .68-2.006c.75-.37 1.66-.071 2.037.666 1.014 2.002 4.095 3.38 5.197 3.742a1.497 1.497 0 0 1 1.018 1.661 1.513 1.513 0 0 1-1.499 1.258zM64.305 22.061c-.84 0-1.52-.67-1.52-1.497 0-.827.68-1.498 1.52-1.498 1.25.153 2.5-.27 3.39-1.149a3.993 3.993 0 0 0 1.166-3.344c0-.827.68-1.497 1.519-1.497.838 0 1.518.67 1.518 1.497 0 5.521-3.923 7.488-7.593 7.488z"/>
        </g>
    </g>
</svg>
