<?xml version="1.0" encoding="iso-8859-1"?>
<!-- Uploaded to: SVG Repo, www.svgrepo.com, Generator: SVG Repo Mixer Tools -->
<svg height="800px" width="800px" version="1.1" id="Layer_1" xmlns="http://www.w3.org/2000/svg" xmlns:xlink="http://www.w3.org/1999/xlink" 
	 viewBox="0 0 512 512" xml:space="preserve">
<circle style="fill:#92C9FF;" cx="256" cy="256" r="244.87"/>
<path d="M437.019,74.98C388.667,26.628,324.38,0,256,0S123.333,26.628,74.981,74.98C26.628,123.333,0,187.619,0,256
	s26.628,132.667,74.981,181.02C123.333,485.372,187.62,512,256,512s132.667-26.628,181.019-74.98
	C485.372,388.667,512,324.381,512,256S485.372,123.333,437.019,74.98z M256,489.739c-35.558,0-69.281-7.996-99.484-22.261H256
	c6.147,0,11.13-4.984,11.13-11.13s-4.983-11.13-11.13-11.13H118.944c-9.325-6.773-18.13-14.216-26.348-22.261h43.188
	c6.147,0,11.13-4.984,11.13-11.13c0-6.137,4.993-11.13,11.13-11.13s11.13,4.993,11.13,11.13c0,6.146,4.983,11.13,11.13,11.13
	h129.125c6.147,0,11.13-4.984,11.13-11.13c0-6.146-4.983-11.13-11.13-11.13H189.53c-4.594-12.957-16.973-22.261-31.485-22.261
	s-26.89,9.304-31.485,22.261H72.562c-29.331-37.104-47.659-83.28-50.029-133.565H68.69c4.594,12.957,16.973,22.261,31.485,22.261
	s26.89-9.304,31.485-22.261h119.901c6.147,0,11.13-4.984,11.13-11.13s-4.983-11.13-11.13-11.13H122.435
	c-6.147,0-11.13,4.984-11.13,11.13c0,6.137-4.993,11.13-11.13,11.13s-11.13-4.993-11.13-11.13c0-6.146-4.983-11.13-11.13-11.13
	H22.532c0.354-7.519,1.073-14.943,2.124-22.261h120.04c6.147,0,11.13-4.984,11.13-11.13c0-6.146-4.983-11.13-11.13-11.13H28.974
	c13.36-54.49,45.872-101.534,89.971-133.565H256c6.147,0,11.13-4.984,11.13-11.13s-4.983-11.13-11.13-11.13h-99.484
	C186.72,30.257,220.442,22.261,256,22.261c63.54,0,121.228,25.496,163.404,66.783H211.478c-6.147,0-11.13,4.984-11.13,11.13
	c0,6.146,4.983,11.13,11.13,11.13h227.96c5.611,7.099,10.814,14.533,15.586,22.261H345.043c-6.147,0-11.13,4.984-11.13,11.13
	c0,6.137-4.993,11.13-11.13,11.13s-11.13-4.993-11.13-11.13c0-6.146-4.983-11.13-11.13-11.13h-66.783
	c-6.147,0-11.13,4.984-11.13,11.13s4.983,11.13,11.13,11.13h57.559c4.594,12.957,16.973,22.261,31.485,22.261
	s26.89-9.304,31.485-22.261h112.888c14.47,30.378,22.584,64.345,22.584,100.174c0,11.337-0.828,22.481-2.395,33.391H211.478
	c-6.147,0-11.13,4.984-11.13,11.13s4.983,11.13,11.13,11.13h271.548c-1.857,7.571-4.082,14.998-6.657,22.261H278.261
	c-6.147,0-11.13,4.984-11.13,11.13c0,6.146,4.983,11.13,11.13,11.13h188.895C429.574,435.073,349.055,489.739,256,489.739z"/>
<path d="M333.913,211.478c0-6.146-4.983-11.13-11.13-11.13H211.478c-6.147,0-11.13,4.984-11.13,11.13
	c0,6.146,4.983,11.13,11.13,11.13h111.304C328.93,222.609,333.913,217.624,333.913,211.478z"/>
<path d="M188.36,207.226c-0.278-0.679-0.623-1.325-1.024-1.924c-0.401-0.613-0.868-1.181-1.38-1.693s-1.08-0.979-1.692-1.38
	c-0.601-0.4-1.247-0.746-1.926-1.024c-0.668-0.278-1.369-0.501-2.081-0.633c-1.436-0.291-2.916-0.291-4.352,0
	c-0.701,0.132-1.402,0.355-2.081,0.633c-0.668,0.278-1.313,0.624-1.914,1.024c-0.612,0.401-1.18,0.868-1.692,1.38
	s-0.979,1.08-1.38,1.693c-0.401,0.6-0.746,1.245-1.024,1.924c-0.278,0.668-0.49,1.369-0.634,2.081
	c-0.145,0.712-0.223,1.447-0.223,2.17c0,2.927,1.191,5.799,3.261,7.868c2.07,2.07,4.931,3.262,7.869,3.262
	c0.723,0,1.458-0.078,2.17-0.223c0.712-0.145,1.414-0.356,2.081-0.634c0.679-0.278,1.325-0.623,1.926-1.024
	c0.612-0.4,1.18-0.868,1.692-1.38c0.512-0.512,0.979-1.08,1.38-1.692c0.401-0.601,0.746-1.247,1.024-1.914
	c0.278-0.679,0.501-1.38,0.634-2.093c0.145-0.713,0.223-1.448,0.223-2.17c0-0.723-0.078-1.459-0.223-2.17
	C188.861,208.595,188.639,207.893,188.36,207.226z"/>
</svg>